<?xml version="1.0" encoding="utf-8"?>
<!-- Generator: Adobe Illustrator 24.0.1, SVG Export Plug-In . SVG Version: 6.00 Build 0)  -->
<svg version="1.1" id="Layer_1" xmlns="http://www.w3.org/2000/svg" xmlns:xlink="http://www.w3.org/1999/xlink" x="0px" y="0px"
	 viewBox="0 0 40 40" style="enable-background:new 0 0 40 40;" xml:space="preserve">
<style type="text/css">
	.st0{fill:#FFFFFF;}
</style>
<path class="st0" d="M35.69,0.29c-0.29-0.23-0.67-0.32-1.04-0.23L13.54,4.94c-0.56,0.13-0.94,0.61-0.94,1.18v7.49v15.81
	c-0.98-0.71-2.19-1.15-3.5-1.15c-3.28,0-5.94,2.64-5.94,5.88s2.67,5.88,5.94,5.88c3.15,0,5.71-2.45,5.91-5.52
	c0.01-0.06,0.04-0.12,0.04-0.18V14.57l18.67-4.31V26.3c-0.98-0.71-2.19-1.15-3.5-1.15c-3.28,0-5.94,2.64-5.94,5.88
	c0,3.24,2.67,5.88,5.94,5.88s5.94-2.64,5.94-5.88c0-0.04-0.01-0.08-0.01-0.12c0-0.02,0.01-0.04,0.01-0.06V8.73V1.24
	C36.15,0.87,35.99,0.52,35.69,0.29z M30.21,34.49c-1.93,0-3.5-1.55-3.5-3.46c0-1.91,1.57-3.46,3.5-3.46s3.5,1.55,3.5,3.46
	C33.71,32.94,32.14,34.49,30.21,34.49z M9.1,37.61c-1.93,0-3.5-1.55-3.5-3.46c0-1.91,1.57-3.46,3.5-3.46s3.5,1.55,3.5,3.46
	C12.6,36.06,11.03,37.61,9.1,37.61z M33.71,2.77v5l-18.67,4.31v-5L33.71,2.77z"/>
</svg>
