<?xml version="1.0" encoding="utf-8"?>
<!-- Generator: Adobe Illustrator 24.0.1, SVG Export Plug-In . SVG Version: 6.00 Build 0)  -->
<svg version="1.1" id="Layer_1" xmlns="http://www.w3.org/2000/svg" xmlns:xlink="http://www.w3.org/1999/xlink" x="0px" y="0px"
	 viewBox="0 0 40 40" style="enable-background:new 0 0 40 40;" xml:space="preserve">
<style type="text/css">
	.st0{fill:#FFFFFF;}
</style>
<g>
	<path class="st0" d="M33.2,12.07l0.77-0.77l0.35,0.35c0.23,0.23,0.53,0.36,0.86,0.36c0.32,0,0.62-0.13,0.85-0.36
		c0.47-0.47,0.47-1.24,0-1.71l-1.19-1.2c0-0.01-0.01-0.01-0.01-0.02c-0.01-0.01-0.01-0.01-0.02-0.01l-1.19-1.2
		c-0.46-0.46-1.25-0.46-1.71,0c-0.23,0.23-0.35,0.53-0.35,0.86s0.13,0.63,0.35,0.86l0.35,0.36l-0.75,0.75
		c-2.37-2.14-5.34-3.61-8.62-4.15V5.7h0.87c0.67,0,1.21-0.54,1.21-1.21V1.45c0-0.67-0.54-1.21-1.21-1.21h-7.2
		c-0.67,0-1.21,0.54-1.21,1.21v3.03c0,0.67,0.54,1.21,1.21,1.21h0.87v0.49c-3.28,0.53-6.24,2.01-8.61,4.14L8.08,9.59l0.35-0.36
		C8.66,9.01,8.79,8.7,8.79,8.38S8.66,7.75,8.43,7.52c-0.46-0.46-1.25-0.46-1.71,0l-1.2,1.2c0,0-0.01,0.01-0.02,0.01
		c0,0-0.01,0.01-0.01,0.02l-1.19,1.2c-0.23,0.23-0.36,0.53-0.36,0.86c0,0.32,0.13,0.63,0.35,0.86c0.23,0.23,0.53,0.36,0.86,0.36
		c0.32,0,0.62-0.13,0.85-0.35l0.36-0.36l0.76,0.76c-2.47,2.96-3.97,6.77-3.97,10.92c0,9.39,7.63,17.03,17,17.03
		c9.37,0,17-7.64,17-17.03C37.16,18.83,35.67,15.03,33.2,12.07z M20.16,8.37c8.04,0,14.58,6.55,14.58,14.61
		c0,8.06-6.54,14.61-14.58,14.61S5.58,31.04,5.58,22.98C5.58,14.93,12.12,8.37,20.16,8.37z M19.85,5.95V5.7h0.63v0.25H19.85z
		 M17.77,2.66h4.79v0.61h-0.87h-3.04h-0.87V2.66z"/>
	<path class="st0" d="M19.08,23.52c0.16,0.33,0.48,0.58,0.84,0.65l0.24,0.02c0.29,0,0.57-0.1,0.79-0.29l3.6-3.11
		c0.5-0.44,0.56-1.2,0.12-1.71c-0.44-0.5-1.2-0.56-1.7-0.12l-2.42,2.09l-2.91-5.88c-0.3-0.6-1.03-0.84-1.62-0.55
		c-0.6,0.3-0.84,1.03-0.55,1.62L19.08,23.52z"/>
</g>
</svg>
