<?xml version="1.0" encoding="utf-8"?>
<!-- Generator: Adobe Illustrator 24.0.1, SVG Export Plug-In . SVG Version: 6.00 Build 0)  -->
<svg version="1.1" id="Layer_1" xmlns="http://www.w3.org/2000/svg" xmlns:xlink="http://www.w3.org/1999/xlink" x="0px" y="0px"
	 viewBox="0 0 40 40" style="enable-background:new 0 0 40 40;" xml:space="preserve">
<style type="text/css">
	.st0{fill:#FFFFFF;}
</style>
<path class="st0" d="M37.23,29.39c-0.16-0.81-0.62-1.46-1.39-1.96l-6.47-3.99c-0.08-0.05-0.16-0.09-0.16-0.07
	c-0.38-0.2-0.84-0.31-1.37-0.31c-0.83,0-1.56,0.29-2.24,0.92l-1.68,1.79l-0.03-0.01c-0.06-0.01-0.31-0.08-0.91-0.4
	c-0.47-0.25-1.08-0.66-1.81-1.21c-0.73-0.55-1.59-1.36-2.56-2.39c-0.97-0.99-1.73-1.88-2.25-2.63c-0.52-0.75-0.91-1.39-1.15-1.89
	c-0.18-0.37-0.32-0.71-0.41-1l1.41-1.47c0.45-0.47,0.75-1.05,0.88-1.73c0.15-0.73,0.05-1.44-0.28-2.04l-3.64-7.19
	c-0.23-0.38-0.52-0.71-0.85-0.96c-0.98-0.77-2.43-0.64-3.36,0.34L4.56,7.8C4.22,8.12,3.94,8.52,3.72,9
	c-0.21,0.45-0.34,0.9-0.41,1.35L3.3,10.51c0,0.05-0.01,0.27-0.03,0.65c-0.03,0.52,0.02,1.17,0.15,1.99
	c0.12,0.79,0.35,1.74,0.68,2.81c0.33,1.08,0.83,2.28,1.48,3.58c0.65,1.3,1.52,2.72,2.57,4.23c1.06,1.52,2.41,3.12,4,4.76
	c2.02,2.13,3.96,3.83,5.76,5.06c1.8,1.23,3.44,2.16,4.87,2.78c1.46,0.63,2.72,1.03,3.76,1.2c1.01,0.16,1.75,0.24,2.24,0.24
	c0.22,0,0.4-0.01,0.55-0.02l0.25-0.02c0.43-0.06,0.87-0.21,1.29-0.42c0.45-0.23,0.84-0.52,1.1-0.83l4.46-4.62
	C37.07,31.23,37.36,30.37,37.23,29.39z M5.59,11.29l0.03-0.65c0.03-0.19,0.1-0.39,0.19-0.59C5.9,9.85,6,9.7,6.15,9.56l4.46-4.65
	c0.12-0.12,0.18-0.14,0.33-0.11c0.1,0.08,0.2,0.19,0.25,0.26l3.59,7.11c0.05,0.1,0.08,0.2,0.04,0.38c-0.04,0.21-0.12,0.38-0.26,0.51
	l-1.64,1.71c-0.17,0.18-0.31,0.41-0.39,0.69c-0.08,0.23-0.11,0.45-0.11,0.65l0.02,0.23c0.11,0.6,0.35,1.28,0.71,1.99
	c0.29,0.61,0.74,1.36,1.34,2.22c0.6,0.86,1.44,1.85,2.49,2.92c1.04,1.11,1.99,2,2.83,2.64c0.84,0.64,1.54,1.1,2.12,1.41
	c0.63,0.34,1.11,0.53,1.51,0.62l0.42,0.09c0.31,0.06,0.58-0.01,0.82-0.09c0.27-0.1,0.49-0.23,0.67-0.42l1.86-1.98
	c0.19-0.17,0.38-0.25,0.63-0.25c0.22,0,0.31,0.04,0.31,0.04c0.05,0.03,0.11,0.06,0.17,0.09l6.32,3.9c0.26,0.17,0.3,0.29,0.3,0.29
	c0.01,0.13,0,0.23-0.14,0.37l-4.51,4.67c-0.1,0.12-0.25,0.22-0.43,0.32c-0.21,0.11-0.41,0.17-0.56,0.2l-0.2,0.02
	c-0.24,0.02-0.52,0.07-2.22-0.2c-0.85-0.14-1.94-0.49-3.22-1.04c-1.3-0.56-2.81-1.43-4.49-2.57c-1.67-1.14-3.48-2.73-5.39-4.75
	c-1.51-1.56-2.78-3.06-3.77-4.47c-0.99-1.42-1.8-2.74-2.39-3.92c-0.59-1.18-1.04-2.26-1.33-3.2c-0.29-0.95-0.49-1.77-0.59-2.45
	C5.58,11.96,5.57,11.52,5.59,11.29z"/>
</svg>
