<?xml version="1.0" encoding="utf-8"?>
<!-- Generator: Adobe Illustrator 24.0.1, SVG Export Plug-In . SVG Version: 6.00 Build 0)  -->
<svg version="1.1" id="Layer_1" xmlns="http://www.w3.org/2000/svg" xmlns:xlink="http://www.w3.org/1999/xlink" x="0px" y="0px"
	 viewBox="0 0 40 40" style="enable-background:new 0 0 40 40;" xml:space="preserve">
<style type="text/css">
	.st0{fill:#FFFFFF;}
</style>
<path class="st0" d="M36.11,16.44h-1.89V14.6c0-8.04-6.36-14.58-14.18-14.58S5.87,6.56,5.87,14.6v1.84H3.98
	c-1.89,0-3.43,1.58-3.43,3.53v5.69c0,1.95,1.54,3.53,3.43,3.53h1.97c0.57,4.82,4.48,8.59,9.28,8.79c0.46,1.19,1.59,2.04,2.91,2.04
	c1.73,0,3.14-1.45,3.14-3.22c0-1.78-1.41-3.23-3.14-3.23c-1.31,0-2.43,0.83-2.9,1.99c-3.9-0.21-7.01-3.52-7.01-7.58V17.65V14.6
	c0-6.71,5.3-12.16,11.82-12.16S31.87,7.89,31.87,14.6v3.05v10.33c0,0.67,0.53,1.21,1.18,1.21h3.07c1.89,0,3.43-1.58,3.43-3.53v-5.69
	C39.55,18.02,38.01,16.44,36.11,16.44z M36.11,26.76h-1.89v-7.9h1.89c0.59,0,1.08,0.5,1.08,1.11v5.69
	C37.19,26.26,36.71,26.76,36.11,26.76z M2.9,19.96c0-0.61,0.48-1.11,1.08-1.11h1.89v7.9H3.98c-0.59,0-1.08-0.5-1.08-1.11V19.96z
	 M18.13,37.59c-0.43,0-0.78-0.36-0.78-0.8c0-0.44,0.35-0.8,0.78-0.8c0.43,0,0.78,0.36,0.78,0.8C18.91,37.23,18.56,37.59,18.13,37.59
	z"/>
</svg>
