<?xml version="1.0" encoding="utf-8"?>
<!-- Generator: Adobe Illustrator 24.0.1, SVG Export Plug-In . SVG Version: 6.00 Build 0)  -->
<svg version="1.1" id="Layer_1" xmlns="http://www.w3.org/2000/svg" xmlns:xlink="http://www.w3.org/1999/xlink" x="0px" y="0px"
	 viewBox="0 0 40 40" style="enable-background:new 0 0 40 40;" xml:space="preserve">
<style type="text/css">
	.st0{fill:#FFFFFF;}
</style>
<g>
	<ellipse class="st0" cx="29.49" cy="20.41" rx="1.17" ry="1.21"/>
	<path class="st0" d="M19.27,10.11h1.87c0.64,0,1.17-0.54,1.17-1.21s-0.52-1.21-1.17-1.21h-1.87c-0.64,0-1.17,0.54-1.17,1.21
		S18.63,10.11,19.27,10.11z M21.14,9.5L21.14,9.5L21.14,9.5L21.14,9.5z"/>
	<path class="st0" d="M24.87,10.11h1.87c0.64,0,1.17-0.54,1.17-1.21s-0.52-1.21-1.17-1.21h-1.87c-0.64,0-1.17,0.54-1.17,1.21
		S24.23,10.11,24.87,10.11z M26.74,9.5L26.74,9.5L26.74,9.5L26.74,9.5z"/>
	<path class="st0" d="M30.47,10.11h1.87c0.64,0,1.17-0.54,1.17-1.21s-0.52-1.21-1.17-1.21h-1.87c-0.64,0-1.17,0.54-1.17,1.21
		S29.83,10.11,30.47,10.11z"/>
	<path class="st0" d="M13.68,10.11h1.87c0.64,0,1.17-0.54,1.17-1.21s-0.52-1.21-1.17-1.21h-1.87c-0.64,0-1.17,0.54-1.17,1.21
		S13.03,10.11,13.68,10.11z"/>
	<path class="st0" d="M8.08,10.11h1.87c0.64,0,1.17-0.54,1.17-1.21s-0.52-1.21-1.17-1.21H8.08c-0.64,0-1.17,0.54-1.17,1.21
		S7.43,10.11,8.08,10.11z M9.94,9.5L9.94,9.5L9.94,9.5L9.94,9.5z"/>
	<path class="st0" d="M38.21,8.9c0-0.06-0.02-0.1-0.03-0.16c-0.16-2.52-2.17-4.53-4.64-4.53H6.88c-2.47,0-4.48,2.01-4.64,4.53
		C2.23,8.8,2.21,8.84,2.21,8.9c0,0.02,0.01,0.03,0.01,0.05c0,0.04-0.01,0.07-0.01,0.1v22.7c0,0.04,0.01,0.07,0.01,0.1
		c0,0.02-0.01,0.03-0.01,0.05c0,0.06,0.02,0.1,0.03,0.16c0.16,2.52,2.17,4.53,4.64,4.53h26.66c2.47,0,4.48-2.01,4.64-4.53
		c0.01-0.05,0.03-0.1,0.03-0.16c0-0.02-0.01-0.03-0.01-0.05c0-0.04,0.01-0.07,0.01-0.1v-7.35V16.4V9.06c0-0.04-0.01-0.07-0.01-0.1
		C38.2,8.93,38.21,8.92,38.21,8.9z M5.51,31.91c0-0.6-0.42-1.07-0.97-1.17V10.07C5.09,9.97,5.51,9.5,5.51,8.9
		c0-0.47-0.27-0.86-0.64-1.06c0.41-0.71,1.15-1.2,2-1.2h26.66c0.86,0,1.6,0.49,2,1.2c-0.38,0.2-0.64,0.6-0.64,1.07
		c0,0.6,0.42,1.07,0.97,1.17v5.12H29.1c-2.69,0-4.89,2.27-4.89,5.07v0.29c0,2.8,2.19,5.07,4.89,5.07h6.77v5.12
		c-0.55,0.1-0.97,0.57-0.97,1.17c0,0.47,0.26,0.86,0.64,1.06c-0.41,0.71-1.15,1.2-2,1.2H6.88c-0.86,0-1.6-0.49-2-1.2
		C5.25,32.77,5.51,32.38,5.51,31.91z M35.87,17.61v5.58H29.1c-1.41,0-2.55-1.19-2.55-2.65v-0.29c0-1.46,1.15-2.65,2.55-2.65H35.87z"
		/>
	<path class="st0" d="M30.47,33.12h1.87c0.64,0,1.17-0.54,1.17-1.21c0-0.67-0.52-1.21-1.17-1.21h-1.87c-0.64,0-1.17,0.54-1.17,1.21
		C29.3,32.58,29.83,33.12,30.47,33.12z"/>
	<path class="st0" d="M8.08,33.12h1.87c0.64,0,1.17-0.54,1.17-1.21c0-0.67-0.52-1.21-1.17-1.21H8.08c-0.64,0-1.17,0.54-1.17,1.21
		C6.91,32.58,7.43,33.12,8.08,33.12z"/>
	<path class="st0" d="M13.68,33.12h1.87c0.64,0,1.17-0.54,1.17-1.21c0-0.67-0.52-1.21-1.17-1.21h-1.87c-0.64,0-1.17,0.54-1.17,1.21
		C12.51,32.58,13.03,33.12,13.68,33.12z"/>
	<path class="st0" d="M19.27,33.12h1.87c0.64,0,1.17-0.54,1.17-1.21c0-0.67-0.52-1.21-1.17-1.21h-1.87c-0.64,0-1.17,0.54-1.17,1.21
		C18.11,32.58,18.63,33.12,19.27,33.12z"/>
	<path class="st0" d="M24.87,33.12h1.87c0.64,0,1.17-0.54,1.17-1.21c0-0.67-0.52-1.21-1.17-1.21h-1.87c-0.64,0-1.17,0.54-1.17,1.21
		C23.71,32.58,24.23,33.12,24.87,33.12z"/>
</g>
</svg>
