<svg xmlns="http://www.w3.org/2000/svg" width="29.819" height="25.72" viewBox="0 0 29.819 25.72">
  <g id="Сгруппировать_82" data-name="Сгруппировать 82" transform="translate(-5890.828 -57.664)">
    <g id="Сгруппировать_79" data-name="Сгруппировать 79">
      <path id="Контур_340" data-name="Контур 340" d="M5917.151,83.384h-22.826a3.5,3.5,0,0,1-3.5-3.5V61.16a3.5,3.5,0,0,1,3.5-3.5h22.826a3.5,3.5,0,0,1,3.5,3.5V79.887A3.5,3.5,0,0,1,5917.151,83.384Zm-22.826-24.722a2.5,2.5,0,0,0-2.5,2.5V79.887a2.5,2.5,0,0,0,2.5,2.5h22.826a2.5,2.5,0,0,0,2.5-2.5V61.16a2.5,2.5,0,0,0-2.5-2.5Z" fill="#fff"/>
    </g>
    <g id="Сгруппировать_80" data-name="Сгруппировать 80">
      <path id="Контур_341" data-name="Контур 341" d="M5920.148,74.325h-6.8a3.687,3.687,0,0,1-3.683-3.683v-.236a3.687,3.687,0,0,1,3.683-3.683h6.8a.5.5,0,0,1,.5.5v6.606A.5.5,0,0,1,5920.148,74.325Zm-6.8-6.6a2.689,2.689,0,0,0-2.686,2.686v.236a2.689,2.689,0,0,0,2.686,2.686h6.3V67.72Z" fill="#fff"/>
    </g>
    <g id="Сгруппировать_81" data-name="Сгруппировать 81">
      <path id="Контур_342" data-name="Контур 342" d="M5913.685,72.34a1.816,1.816,0,1,1,1.815-1.816A1.818,1.818,0,0,1,5913.685,72.34Zm0-2.635a.819.819,0,1,0,.818.819A.82.82,0,0,0,5913.685,69.705Z" fill="#fff"/>
    </g>
  </g>
</svg>
