<svg width="110" height="97" viewBox="0 0 110 97" fill="none" xmlns="http://www.w3.org/2000/svg">
<path d="M108.776 82.5407L62.2152 4.40409C58.9156 -1.10711 50.9722 -1.597 47.5504 3.79174L1.36416 82.4183C-2.30202 88.1744 1.85298 97 8.68889 97H101.321C108.042 97 112.197 88.2969 108.776 82.5407ZM54.7606 83.7655C51.461 83.7655 48.7725 81.0787 48.7725 77.7644C48.7725 74.45 51.4534 71.7633 54.7606 71.7633C58.0602 71.7633 60.7487 74.45 60.7487 77.7644C60.7487 81.0787 58.0678 83.7655 54.7606 83.7655ZM61.1153 61.7206C61.1153 65.0274 58.3046 67.7217 55.005 67.7217C51.7054 67.7217 48.8947 65.035 48.8947 61.7206V30.3603C48.8947 27.0536 51.7054 24.3592 55.005 24.3592C58.3046 24.3592 61.1153 27.046 61.1153 30.3603V61.7206Z" fill="#D9000D"/>
</svg>
