<svg width="225" height="79" viewBox="0 0 225 79" fill="none" xmlns="http://www.w3.org/2000/svg">
<rect width="225" height="78.8961" rx="10" fill="#F9F9F9"/>
<path d="M80.4979 35.0711C80.4979 34.3282 80.4217 33.6043 80.2883 32.8995C79.5263 26.5118 76.5355 23.6163 69.9062 23.6163H69.0426H68.0393H60.8384H50.5896V55.1297H60.8321V43.0653V31.9217H67.0868C68.8267 31.9217 70.2427 33.3313 70.2427 35.0775L70.2491 35.0838V46.4624V55.1297H80.4915V36.703C80.4915 36.3029 80.4788 35.922 80.4661 35.541C80.4788 35.3759 80.4979 35.2235 80.4979 35.0711Z" fill="#575756"/>
<path d="M83.076 43.6685C83.076 44.4115 83.1522 45.1353 83.2855 45.8401C84.0475 52.2279 87.0383 55.1233 93.6677 55.1233H94.5313H95.5346H102.735H112.978V23.61H102.735V35.6743V46.8116H96.4807C94.7408 46.8116 93.3248 45.402 93.3248 43.6558L93.3184 43.6495V32.2773V23.61H83.076V42.0367C83.076 42.4367 83.0887 42.8177 83.1014 43.1987C83.0887 43.3574 83.076 43.5098 83.076 43.6685Z" fill="#575756"/>
<path d="M28.2378 20.2002C17.4873 20.2002 8.74341 28.8929 8.74341 39.5794C8.74341 50.2658 17.4873 58.9585 28.2378 58.9585C38.9882 58.9585 47.7321 50.2658 47.7321 39.5794C47.7321 28.8929 38.9819 20.2002 28.2378 20.2002ZM28.2378 57.2822C18.4144 57.2822 10.4198 49.3388 10.4198 39.5794C10.4198 29.82 18.4144 21.8765 28.2378 21.8765C38.0611 21.8765 46.0557 29.82 46.0557 39.5794C46.0494 49.3388 38.0611 57.2822 28.2378 57.2822Z" fill="#E30613"/>
<path d="M28.2378 26.3784C20.9163 26.3784 14.96 32.3027 14.96 39.5794C14.96 46.8561 20.9163 52.7803 28.2378 52.7803C35.5593 52.7803 41.5155 46.8561 41.5155 39.5794C41.5155 32.3027 35.5529 26.3784 28.2378 26.3784ZM28.2378 51.0976C21.8434 51.0976 16.6428 45.929 16.6428 39.5794C16.6428 33.2297 21.8434 28.0611 28.2378 28.0611C34.6322 28.0611 39.8328 33.2297 39.8328 39.5794C39.8328 45.929 34.6322 51.0976 28.2378 51.0976Z" fill="#E30613"/>
<path d="M28.2378 20.2002H27.3996V28.0611H28.2378C32.5748 28.0611 36.5689 30.5311 38.5374 34.3155H26.8598V44.9385H38.4929C36.5054 48.7165 32.6002 51.0976 28.2378 51.0976H27.3996V58.9585H28.2378C38.9882 58.9585 47.7321 50.2658 47.7321 39.5794C47.7321 28.8929 38.9819 20.2002 28.2378 20.2002Z" fill="#E30613"/>
<path d="M124.217 36.7855H123.373C122.382 36.7855 121.582 35.9855 121.582 34.9949V28.531V23.61H115.766V34.0679C115.766 34.2965 115.772 34.5123 115.778 34.7282C115.772 34.8171 115.766 34.8997 115.766 34.9886C115.766 35.4076 115.81 35.8204 115.886 36.2204C116.318 39.8461 118.02 41.4906 121.779 41.4906H122.268H122.839H126.929H134.936V36.7792L124.217 36.7855Z" fill="#575756"/>
<path d="M126.922 23.61V23.8513V30.4613V30.7025V34.6711V34.9124H132.739V34.6711V23.8513V23.61H126.922Z" fill="#575756"/>
<path d="M137.444 41.5033H141.299H153.745V36.7855H137.444V41.5033Z" fill="#575756"/>
<path d="M153.745 28.3278V23.61H143.261H137.444V28.3278V30.2009V30.4613V34.6711V34.9124H153.745V30.2009H143.261V28.3278H153.745Z" fill="#575756"/>
<path d="M187.209 30.1692H181.392V37.1856V41.5033H187.209V30.1692Z" fill="#575756"/>
<path d="M176.154 23.61V28.3278H180.002H192.454V23.61H176.154Z" fill="#575756"/>
<path d="M200.556 30.1692H194.74V37.1856V41.5033H200.556V30.1692Z" fill="#575756"/>
<path d="M156.113 23.61V30.4422V30.4613V34.6711V37.2871V41.5033H161.93V34.6711V30.4422V23.61H156.113Z" fill="#575756"/>
<path d="M168.057 23.61V30.2009H163.504V34.9124H168.057V37.2871V41.5033H173.874V34.6711V30.4422V23.61H168.057Z" fill="#575756"/>
<path d="M205.376 23.61C205.274 23.61 205.179 23.6227 205.084 23.6227C204.982 23.6163 204.874 23.61 204.773 23.61H198.594H194.746V26.2387V28.3214H204.43H205.44C205.459 28.3214 205.471 28.3214 205.49 28.3214C205.509 28.3214 205.522 28.3214 205.541 28.3214C206.049 28.3214 206.462 28.7342 206.462 29.2421C206.462 29.7501 206.049 30.1628 205.541 30.1628C205.522 30.1628 205.509 30.1628 205.49 30.1628C205.471 30.1628 205.459 30.1628 205.44 30.1628H204.43H194.746V32.2455V34.8743H198.594H204.773C204.881 34.8743 204.982 34.8616 205.084 34.8616C205.179 34.8679 205.281 34.8743 205.376 34.8743C208.488 34.8743 211.008 32.3535 211.008 29.2421C211.008 26.1371 208.488 23.61 205.376 23.61Z" fill="#575756"/>
<path d="M211.015 44.1003H115.766V55.1233H211.015V44.1003Z" fill="#DB0D15"/>
<path d="M126.827 51.4405V54.3106H125.386V47.091H126.827V47.8466H126.846C127.227 47.2625 127.761 46.9704 128.453 46.9704C129.081 46.9704 129.57 47.1926 129.926 47.6307C130.281 48.0689 130.459 48.6657 130.459 49.4277C130.459 50.2531 130.256 50.9135 129.843 51.4151C129.431 51.9167 128.891 52.1644 128.224 52.1644C127.621 52.1644 127.157 51.9231 126.846 51.4469H126.827V51.4405ZM126.802 49.8468C126.802 50.196 126.897 50.4881 127.087 50.7103C127.278 50.9326 127.526 51.0468 127.83 51.0468C128.192 51.0468 128.472 50.9072 128.675 50.6278C128.878 50.3484 128.98 49.9484 128.98 49.4404C128.98 48.5324 128.624 48.0816 127.919 48.0816C127.589 48.0816 127.322 48.2086 127.119 48.4562C126.91 48.7038 126.808 49.0277 126.808 49.4213V49.8468H126.802Z" fill="white"/>
<path d="M141.362 49.9674H138.105C138.155 50.7357 138.619 51.1167 139.489 51.1167C140.035 51.1167 140.518 50.9833 140.93 50.7167V51.7771C140.48 52.031 139.889 52.158 139.159 52.158C138.371 52.158 137.762 51.9358 137.324 51.4913C136.885 51.0468 136.67 50.4309 136.67 49.6372C136.67 48.8499 136.905 48.2085 137.368 47.7133C137.832 47.218 138.416 46.9704 139.121 46.9704C139.819 46.9704 140.365 47.1799 140.765 47.6053C141.159 48.0308 141.356 48.6149 141.356 49.3578V49.9674H141.362ZM140.016 49.0658C140.016 48.3292 139.718 47.9546 139.114 47.9546C138.867 47.9546 138.651 48.0562 138.454 48.2593C138.263 48.4625 138.143 48.7292 138.098 49.0658H140.016Z" fill="white"/>
<path d="M152.652 52.0374H150.9L149.255 49.5928H149.236V52.0374H147.795V47.091H149.236V49.3769H149.255L150.798 47.091H152.519L150.684 49.4213L152.652 52.0374Z" fill="white"/>
<path d="M163.308 52.0374H161.86V48.126H160.984C160.793 49.7769 160.507 50.85 160.133 51.3453C159.758 51.8469 159.294 52.0945 158.742 52.0945C158.532 52.0945 158.336 52.0628 158.164 51.9993V51.0024C158.278 51.0532 158.399 51.0786 158.52 51.0786C158.805 51.0786 159.053 50.8182 159.256 50.2976C159.46 49.7769 159.65 48.7102 159.821 47.091H163.301V52.0374H163.308Z" fill="white"/>
<path d="M170.242 47.3894C170.464 47.2625 170.762 47.1609 171.137 47.0847C171.512 47.0085 171.829 46.9704 172.096 46.9704C173.48 46.9704 174.172 47.6625 174.172 49.0467V52.031H172.801V51.3135H172.782C172.445 51.8723 171.95 52.1517 171.302 52.1517C170.832 52.1517 170.458 52.0183 170.178 51.7517C169.899 51.485 169.753 51.123 169.753 50.6659C169.753 49.7198 170.318 49.1673 171.448 49.0086L172.807 48.8245C172.807 48.2466 172.509 47.9609 171.905 47.9609C171.315 47.9609 170.762 48.1387 170.235 48.4943V47.3894H170.242ZM171.874 49.796C171.353 49.8658 171.093 50.1007 171.093 50.5008C171.093 50.6849 171.156 50.8373 171.283 50.9452C171.41 51.0595 171.582 51.1167 171.797 51.1167C172.09 51.1167 172.337 51.0151 172.528 50.8056C172.718 50.596 172.813 50.3357 172.813 50.0245V49.669L171.874 49.796Z" fill="white"/>
<path d="M187.177 52.0374H185.825V48.1641C185.799 48.3038 185.71 48.6086 185.558 49.0785L184.567 52.0437H183.297L182.3 49.0785C182.161 48.653 182.065 48.3546 182.034 48.1768V52.0437H180.897V47.0974H182.789L183.767 49.9611C183.913 50.3992 184.002 50.6976 184.021 50.85C184.047 50.7103 184.135 50.4182 184.288 49.9738L185.247 47.0974H187.171V52.0374H187.177Z" fill="white"/>
<path d="M193.991 52.0374V47.091H195.432V48.8372H196.74C197.299 48.8372 197.731 48.9705 198.042 49.2435C198.353 49.5166 198.505 49.8976 198.505 50.3801C198.505 50.8754 198.353 51.2754 198.042 51.5802C197.731 51.885 197.312 52.031 196.772 52.031H193.991V52.0374ZM195.432 49.7706V51.0976H196.219C196.746 51.0976 197.013 50.869 197.013 50.4119C197.013 49.9801 196.753 49.7706 196.232 49.7706H195.432ZM200.607 52.0374H199.159V47.091H200.607V52.0374Z" fill="white"/>
</svg>
