<?xml version="1.0" encoding="utf-8"?>
<!-- Generator: Adobe Illustrator 24.0.1, SVG Export Plug-In . SVG Version: 6.00 Build 0)  -->
<svg version="1.1" id="Layer_1" xmlns="http://www.w3.org/2000/svg" xmlns:xlink="http://www.w3.org/1999/xlink" x="0px" y="0px"
	 viewBox="0 0 340.16 70.87" style="enable-background:new 0 0 340.16 70.87;" xml:space="preserve">
<style type="text/css">
	.st0{fill:#575756;}
	.st1{fill:#E30613;}
	.st2{fill:#DB0D15;}
	.st3{fill:#FFFFFF;}
</style>
<g>
	<path class="st0" d="M120.47,28.46c0-1.17-0.12-2.31-0.33-3.42c-1.2-10.06-5.91-14.62-16.35-14.62h-1.36h-1.58H89.51H73.37v49.63
		h16.13v-19V23.5h9.85c0,0,0,0,0,0c2.74,0,4.97,2.22,4.97,4.97c0,0,0.01,0.01,0.01,0.01V46.4v13.65h16.13c0,0,0-29.02,0-29.02
		c0-0.63-0.02-1.23-0.04-1.83C120.44,28.94,120.47,28.7,120.47,28.46z"/>
	<path class="st0" d="M124.53,42c0,1.17,0.12,2.31,0.33,3.42c1.2,10.06,5.91,14.62,16.35,14.62h1.36h1.58h11.34h16.13V10.41h-16.13
		v19v17.54h-9.85c0,0,0,0,0,0c-2.74,0-4.97-2.22-4.97-4.97c0,0-0.01-0.01-0.01-0.01V24.06V10.41h-16.13c0,0,0,29.02,0,29.02
		c0,0.63,0.02,1.23,0.04,1.83C124.55,41.51,124.53,41.75,124.53,42z"/>
	<g>
		<g>
			<g>
				<path class="st1" d="M38.17,5.04c-16.93,0-30.7,13.69-30.7,30.52s13.77,30.52,30.7,30.52s30.7-13.69,30.7-30.52
					S55.09,5.04,38.17,5.04z M38.17,63.44c-15.47,0-28.06-12.51-28.06-27.88c0-15.37,12.59-27.88,28.06-27.88
					s28.06,12.51,28.06,27.88C66.22,50.93,53.64,63.44,38.17,63.44z"/>
				<path class="st1" d="M38.17,14.77c-11.53,0-20.91,9.33-20.91,20.79s9.38,20.79,20.91,20.79c11.53,0,20.91-9.33,20.91-20.79
					S49.69,14.77,38.17,14.77z M38.17,53.7c-10.07,0-18.26-8.14-18.26-18.14c0-10,8.19-18.14,18.26-18.14
					c10.07,0,18.26,8.14,18.26,18.14C56.43,45.56,48.24,53.7,38.17,53.7z"/>
			</g>
		</g>
	</g>
	<path class="st1" d="M38.17,5.04h-1.32v12.38h1.32c6.83,0,13.12,3.89,16.22,9.85H36V44h18.32c-3.13,5.95-9.28,9.7-16.15,9.7h-1.32
		v12.38h1.32c16.93,0,30.7-13.69,30.7-30.52S55.09,5.04,38.17,5.04z"/>
	<path class="st0" d="M189.32,31.16h-1.33c0,0,0,0,0,0c-1.56,0-2.82-1.26-2.82-2.82c0,0,0,0,0,0V18.16v-7.75h-9.16
		c0,0,0,16.47,0,16.47c0,0.36,0.01,0.7,0.02,1.04c-0.01,0.14-0.02,0.27-0.02,0.41c0,0.66,0.07,1.31,0.19,1.94
		c0.68,5.71,3.36,8.3,9.28,8.3h0.77h0.9h6.44h12.61v-7.42L189.32,31.16L189.32,31.16z"/>
	<polygon class="st0" points="193.58,10.41 193.58,10.79 193.58,21.2 193.58,21.58 193.58,27.83 193.58,28.21 202.74,28.21 
		202.74,27.83 202.74,10.79 202.74,10.41 	"/>
	<g>
		<polygon class="st0" points="210.15,38.59 216.22,38.59 235.82,38.59 235.82,31.16 210.15,31.16 		"/>
		<polygon class="st0" points="235.82,17.84 235.82,10.41 219.31,10.41 210.15,10.41 210.15,17.84 210.15,20.79 210.15,21.2 
			210.15,27.83 210.15,28.21 235.82,28.21 235.82,20.79 219.31,20.79 219.31,17.84 		"/>
	</g>
	<polygon class="st0" points="288.52,20.74 279.36,20.74 279.36,31.79 279.36,38.59 288.52,38.59 	"/>
	<polygon class="st0" points="271.11,10.41 271.11,17.84 277.17,17.84 296.78,17.84 296.78,10.41 	"/>
	<polygon class="st0" points="309.54,20.74 300.38,20.74 300.38,31.79 300.38,38.59 309.54,38.59 	"/>
	<polygon class="st0" points="239.55,10.41 239.55,21.17 239.55,21.2 239.55,27.83 239.55,31.95 239.55,38.59 248.71,38.59 
		248.71,27.83 248.71,21.17 248.71,10.41 	"/>
	<polygon class="st0" points="258.36,10.41 258.36,20.79 251.19,20.79 251.19,28.21 258.36,28.21 258.36,31.95 258.36,38.59 
		267.52,38.59 267.52,27.83 267.52,21.17 267.52,10.41 	"/>
	<path class="st0" d="M317.13,10.41c-0.16,0-0.31,0.02-0.46,0.02c-0.16-0.01-0.33-0.02-0.49-0.02h-9.73h-6.06v4.14v3.28v0h15.25
		h1.59c0.03,0,0.05,0,0.08,0c0.03,0,0.05,0,0.08,0c0.8,0,1.45,0.65,1.45,1.45c0,0.8-0.65,1.45-1.45,1.45c-0.03,0-0.05,0-0.08,0
		c-0.03,0-0.05,0-0.08,0h-1.59h-15.25v0v3.28v4.14h6.06h9.73c0.17,0,0.33-0.02,0.49-0.02c0.15,0.01,0.31,0.02,0.46,0.02
		c4.9,0,8.87-3.97,8.87-8.87C326,14.39,322.03,10.41,317.13,10.41z"/>
	<rect x="176.01" y="42.68" class="st2" width="150" height="17.36"/>
	<g>
		<g>
			<path class="st3" d="M193.43,54.24v4.52h-2.27V47.39h2.27v1.19h0.03c0.6-0.92,1.44-1.38,2.53-1.38c0.99,0,1.76,0.35,2.32,1.04
				c0.56,0.69,0.84,1.63,0.84,2.83c0,1.3-0.32,2.34-0.97,3.13c-0.65,0.79-1.5,1.18-2.55,1.18c-0.95,0-1.68-0.38-2.17-1.13H193.43z
				 M193.39,51.73c0,0.55,0.15,1.01,0.45,1.36c0.3,0.35,0.69,0.53,1.17,0.53c0.57,0,1.01-0.22,1.33-0.66
				c0.32-0.44,0.48-1.07,0.48-1.87c0-1.43-0.56-2.14-1.67-2.14c-0.52,0-0.94,0.2-1.26,0.59c-0.33,0.39-0.49,0.9-0.49,1.52V51.73z"/>
			<path class="st3" d="M216.32,51.92h-5.13c0.08,1.21,0.81,1.81,2.18,1.81c0.86,0,1.62-0.21,2.27-0.63v1.67
				c-0.71,0.4-1.64,0.6-2.79,0.6c-1.24,0-2.2-0.35-2.89-1.05s-1.03-1.67-1.03-2.92c0-1.24,0.37-2.25,1.1-3.03
				c0.73-0.78,1.65-1.17,2.76-1.17c1.1,0,1.96,0.33,2.59,1c0.62,0.67,0.93,1.59,0.93,2.76V51.92z M214.2,50.5
				c0-1.16-0.47-1.75-1.42-1.75c-0.39,0-0.73,0.16-1.04,0.48c-0.3,0.32-0.49,0.74-0.56,1.27H214.2z"/>
			<path class="st3" d="M234.1,55.18h-2.76l-2.59-3.85h-0.03v3.85h-2.27v-7.79h2.27v3.6h0.03l2.43-3.6h2.71L231,51.06L234.1,55.18z"
				/>
			<path class="st3" d="M250.88,55.18h-2.28v-6.16h-1.38c-0.3,2.6-0.75,4.29-1.34,5.07c-0.59,0.79-1.32,1.18-2.19,1.18
				c-0.33,0-0.64-0.05-0.91-0.15v-1.57c0.18,0.08,0.37,0.12,0.56,0.12c0.45,0,0.84-0.41,1.16-1.23c0.32-0.82,0.62-2.5,0.89-5.05
				h5.48V55.18z"/>
			<path class="st3" d="M261.8,47.86c0.35-0.2,0.82-0.36,1.41-0.48c0.59-0.12,1.09-0.18,1.51-0.18c2.18,0,3.27,1.09,3.27,3.27v4.7
				h-2.16v-1.13h-0.03c-0.53,0.88-1.31,1.32-2.33,1.32c-0.74,0-1.33-0.21-1.77-0.63s-0.67-0.99-0.67-1.71
				c0-1.49,0.89-2.36,2.67-2.61l2.14-0.29c0-0.91-0.47-1.36-1.42-1.36c-0.93,0-1.8,0.28-2.63,0.84V47.86z M264.37,51.65
				c-0.82,0.11-1.23,0.48-1.23,1.11c0,0.29,0.1,0.53,0.3,0.7c0.2,0.18,0.47,0.27,0.81,0.27c0.46,0,0.85-0.16,1.15-0.49
				c0.3-0.33,0.45-0.74,0.45-1.23v-0.56L264.37,51.65z"/>
			<path class="st3" d="M288.47,55.18h-2.13v-6.1c-0.04,0.22-0.18,0.7-0.42,1.44l-1.56,4.67h-2l-1.57-4.67
				c-0.22-0.67-0.37-1.14-0.42-1.42v6.09h-1.79v-7.79h2.98l1.54,4.51c0.23,0.69,0.37,1.16,0.4,1.4c0.04-0.22,0.18-0.68,0.42-1.38
				l1.51-4.53h3.03V55.18z"/>
			<path class="st3" d="M299.2,55.18v-7.79h2.27v2.75h2.06c0.88,0,1.56,0.21,2.05,0.64c0.49,0.43,0.73,1.03,0.73,1.79
				c0,0.78-0.24,1.41-0.73,1.89s-1.15,0.71-2,0.71H299.2z M301.47,51.61v2.09h1.24c0.83,0,1.25-0.36,1.25-1.08
				c0-0.68-0.41-1.01-1.23-1.01H301.47z M309.62,55.18h-2.28v-7.79h2.28V55.18z"/>
		</g>
	</g>
</g>
</svg>
